<svg width="20" height="20" viewBox="0 0 20 20" fill="none" xmlns="http://www.w3.org/2000/svg">
<path d="M10.0001 17.2222C13.9888 17.2222 17.2223 13.9888 17.2223 9.99999C17.2223 6.01127 13.9888 2.77777 10.0001 2.77777C6.01133 2.77777 2.77783 6.01127 2.77783 9.99999C2.77783 13.9888 6.01133 17.2222 10.0001 17.2222Z" fill="#4B4152"/>
<path d="M10.0001 17.2222C13.9888 17.2222 17.2223 13.9888 17.2223 9.99999C17.2223 6.01127 13.9888 2.77777 10.0001 2.77777C6.01133 2.77777 2.77783 6.01127 2.77783 9.99999C2.77783 13.9888 6.01133 17.2222 10.0001 17.2222Z" stroke="#BAAFC1" stroke-width="1.4" stroke-linecap="round" stroke-linejoin="round"/>
<path d="M8.33325 13.3333H11.6666" stroke="#BAAFC1" stroke-width="1.4" stroke-linecap="round" stroke-linejoin="round"/>
<path d="M10 13.3333V9.4444H8.88892" stroke="#BAAFC1" stroke-width="1.4" stroke-linecap="round" stroke-linejoin="round"/>
<path d="M10.0002 6.94441C9.84678 6.94441 9.72241 6.82004 9.72241 6.66663C9.72241 6.51322 9.84678 6.38885 10.0002 6.38885" stroke="#BAAFC1" stroke-width="1.4" stroke-linecap="round" stroke-linejoin="round"/>
<path d="M10.0002 6.94441C10.1537 6.94441 10.278 6.82004 10.278 6.66663C10.278 6.51322 10.1537 6.38885 10.0002 6.38885" stroke="#BAAFC1" stroke-width="1.4" stroke-linecap="round" stroke-linejoin="round"/>
</svg>
