<svg width="32" height="32" viewBox="0 0 32 32" fill="none" xmlns="http://www.w3.org/2000/svg">
<path d="M20.3521 1.59998C23.2321 1.59998 24.6721 1.59998 26.2401 2.07998C27.9361 2.68798 29.2801 4.03198 29.8881 5.72798C30.4001 7.29598 30.4001 8.76798 30.4001 11.648V20.352C30.4001 23.232 30.4001 24.672 29.9201 26.24C29.3121 27.936 27.9681 29.28 26.2721 29.888C24.6721 30.4 23.2321 30.4 20.3521 30.4H11.6481C8.7681 30.4 7.3281 30.4 5.7601 29.92C4.0321 29.28 2.7201 27.968 2.0801 26.24C1.6001 24.704 1.6001 23.264 1.6001 20.352V11.648C1.6001 8.76798 1.6001 7.32798 2.0801 5.75998C2.7201 4.06398 4.0321 2.71998 5.7601 2.11198C7.2961 1.59998 8.7361 1.59998 11.6481 1.59998H20.3521Z" fill="white"/>
<path d="M25.824 10.24C25.824 8.06402 24.16 6.40002 22.24 6.40002C20.896 6.40002 19.808 6.84802 19.136 7.84002C18.464 6.84802 17.376 6.40002 16.256 6.40002C14.08 6.40002 12.416 8.06402 12.416 10.24C12.416 10.144 12.416 10.176 12.416 10.24C12.416 13.472 15.52 16.736 19.136 18.144C21.952 17.216 25.824 13.472 25.824 10.24C25.824 10.176 25.824 10.144 25.824 10.24Z" fill="url(#paint0_linear_139_1999)"/>
<defs>
<linearGradient id="paint0_linear_139_1999" x1="19.1136" y1="6.40815" x2="19.1136" y2="18.1642" gradientUnits="userSpaceOnUse">
<stop stop-color="#FF61AD"/>
<stop offset="1" stop-color="#FF2719"/>
</linearGradient>
</defs>
</svg>
