<svg width="32" height="32" viewBox="0 0 32 32" fill="none" xmlns="http://www.w3.org/2000/svg">
<path d="M3.87275 16.7424L5.39593 18.2656L8.68549 14.9889L7.17511 13.4657L6.48392 12.7745C5.93352 12.2241 5.63913 11.5073 5.63913 10.7265C5.63913 10.0481 5.86952 9.43372 6.26632 8.94733C6.80391 8.26894 7.62311 7.83374 8.54469 7.83374C9.32549 7.83374 10.0423 8.14094 10.6055 8.69133L11.2839 9.34413L12.807 10.8801L16.1094 7.60335L14.5734 6.08016L13.8822 5.41457C12.5126 4.04499 10.6311 3.2002 8.54469 3.2002C4.35914 3.2002 0.97998 6.57936 0.97998 10.7393C0.97998 11.7761 1.18478 12.7617 1.56877 13.6705C1.95277 14.5793 2.50316 15.3857 3.19436 16.064L3.87275 16.7424Z" fill="#EA4335"/>
<path d="M11.4114 18.8418L16.109 14.1698L12.8066 10.8802L8.68507 14.989L5.39551 18.2658L7.16189 20.0449L8.68507 21.5553L10.2723 19.9681" fill="#FBBC04"/>
<path d="M19.3857 25.677L26.8097 18.2659L23.5073 14.9891L16.0962 22.3875L11.9746 18.2787L8.68506 21.5555L12.8066 25.677L12.7938 25.6898L16.0962 28.8002L19.3985 25.677H19.3857Z" fill="#34A853"/>
<path d="M28.9985 16.0639C30.5344 14.5279 31.4176 12.1728 31.1744 9.792C30.816 6.18244 27.8209 3.46888 24.1857 3.22568C21.8945 3.07208 19.7954 3.92967 18.3106 5.41445L12.8066 10.88L16.0962 14.1696L21.6001 8.69122C22.2657 8.03842 23.1873 7.73123 24.1345 7.88483C25.3633 8.07682 26.3617 9.08801 26.5281 10.3168C26.6561 11.2384 26.3489 12.1344 25.6961 12.7872L23.5073 14.9887L26.8097 18.2655L28.9985 16.0639Z" fill="#4285F4"/>
</svg>
