<svg width="32" height="32" viewBox="0 0 32 32" fill="none" xmlns="http://www.w3.org/2000/svg">
<path d="M27.4837 11.5504C27.35 11.6284 24.1674 13.2743 24.1674 16.9237C24.3174 21.0857 28.1837 22.5452 28.25 22.5452C28.1837 22.6232 27.6663 24.5335 26.1337 26.536C24.9174 28.2609 23.5674 30 21.5174 30C19.5674 30 18.8674 28.8504 16.6174 28.8504C14.2011 28.8504 13.5174 30 11.6673 30C9.61734 30 8.16734 28.1677 6.88473 26.459C5.21842 24.2225 3.80211 20.7129 3.75211 17.3431C3.71842 15.5574 4.08581 13.8021 5.01842 12.3111C6.33473 10.2296 8.68473 8.81667 11.251 8.77008C13.2174 8.70829 14.9674 10.0281 16.1674 10.0281C17.3174 10.0281 19.4674 8.77008 21.9 8.77008C22.95 8.77109 25.75 9.06584 27.4837 11.5504ZM16.0011 8.41354C15.6511 6.78281 16.6174 5.15208 17.5174 4.11185C18.6674 2.85386 20.4837 2 22.05 2C22.15 3.63073 21.5163 5.23007 20.3837 6.39488C19.3674 7.65287 17.6174 8.59991 16.0011 8.41354Z" fill="#07030A"/>
</svg>
