<svg width="44" height="44" viewBox="0 0 44 44" fill="none" xmlns="http://www.w3.org/2000/svg">
<g clip-path="url(#clip0_982_7421)">
<path d="M0 22C0 9.84974 9.84974 0 22 0V0C34.1503 0 44 9.84974 44 22V22C44 34.1503 34.1503 44 22 44V44C9.84974 44 0 34.1503 0 22V22Z" fill="#DCCFFB"/>
<path d="M34.2063 17.547C34.1696 18.4302 33.014 19.1429 32.8135 19.9697C32.6078 20.8227 33.3036 21.9849 32.9446 22.7619C32.5855 23.5389 31.2412 23.7695 30.7263 24.4652C30.2114 25.161 30.4118 26.5079 29.775 27.0936C29.1383 27.6793 27.8175 27.3674 27.0772 27.8195C26.3369 28.2715 26.0133 29.587 25.1944 29.8857C24.3755 30.1845 23.2893 29.3892 22.4232 29.5228C21.582 29.6538 20.7749 30.744 19.8918 30.702C19.0087 30.6601 18.2959 29.5097 17.4691 29.3092C16.6174 29.1022 15.4539 29.7993 14.6769 29.4403C13.9 29.0813 13.6707 27.7369 12.9736 27.2233C12.2765 26.7097 10.9309 26.9088 10.3452 26.2721C9.75954 25.6353 10.0701 24.3145 9.61803 23.5729C9.16599 22.8313 7.85311 22.5103 7.55307 21.6927C7.25302 20.8751 8.05096 19.7876 7.91601 18.9215C7.78498 18.0803 6.69485 17.2719 6.73677 16.3901C6.7787 15.5083 7.93042 14.7942 8.13089 13.9674C8.3366 13.1158 7.64085 11.9522 7.99986 11.1753C8.35887 10.3983 9.7032 10.169 10.2168 9.47193C10.7304 8.77487 10.5326 7.42923 11.1694 6.85141C11.8062 6.27359 13.1269 6.57626 13.8672 6.12422C14.6075 5.67218 14.9311 4.35799 15.75 4.05794C16.569 3.75789 17.6538 4.54929 18.5173 4.41564C19.3572 4.28461 20.1656 3.19448 21.0474 3.23641C21.9292 3.27834 22.6433 4.43005 23.4714 4.62921C24.3231 4.83623 25.4853 4.13918 26.2622 4.49819C27.0392 4.8572 27.2698 6.20152 27.9656 6.71514C28.6613 7.22876 30.0083 7.0296 30.594 7.66639C31.1796 8.30318 30.8691 9.62523 31.3211 10.3655C31.7732 11.1058 33.0874 11.4295 33.3874 12.2471C33.6875 13.0647 32.8895 14.1522 33.0232 15.0182C33.1516 15.8542 34.2443 16.6652 34.2063 17.547Z" fill="url(#paint0_linear_982_7421)"/>
<path d="M37.2697 39.7494C33.0119 43.0278 27.7835 44.7946 22.4099 44.7708C17.0363 44.7471 11.8236 42.9342 7.59497 39.6184L13.9707 36.6297C14.1658 36.5374 14.3561 36.435 14.5406 36.3231L14.6874 36.2313C14.7398 36.1986 14.7909 36.1645 14.842 36.1291C15.6464 35.5742 16.3056 34.8341 16.7642 33.9712C17.2883 32.9819 17.4612 31.8892 17.4691 30.7754C17.4691 30.026 17.4285 29.2765 17.4206 28.5257C17.4154 28.1108 17.411 27.6955 17.4075 27.2797L17.6695 27.4107L18.3509 27.7631L22.3197 28.4379L26.3972 29.1324L26.5203 33.3252L26.5819 35.4046L28.0848 36.0165L29.264 36.4934L37.2697 39.7494Z" fill="#845161"/>
<path d="M26.5178 33.3225C25.2 33.5579 23.8439 33.4532 22.5778 33.0186C19.7503 32.0686 17.8465 29.777 17.667 27.4159L18.3483 27.7684L22.3171 28.4431L26.3946 29.1376L26.5178 33.3225Z" fill="#69303A"/>
<path d="M37.2697 39.7494C33.0119 43.0278 27.7835 44.7946 22.4099 44.7708C17.0363 44.7471 11.8236 42.9342 7.59497 39.6184L13.9707 36.6297C14.1658 36.5374 14.3561 36.435 14.5406 36.3231C17.6433 38.6042 21.9606 40.09 25.6857 38.4195C26.7418 37.9452 27.6943 37.1027 28.0822 36.0204L29.2614 36.4973L37.2697 39.7494Z" fill="url(#paint1_linear_982_7421)"/>
<path d="M14.4582 25.1097C15.6883 25.1097 16.6856 24.1124 16.6856 22.8822C16.6856 21.652 15.6883 20.6548 14.4582 20.6548C13.228 20.6548 12.2307 21.652 12.2307 22.8822C12.2307 24.1124 13.228 25.1097 14.4582 25.1097Z" fill="#845161"/>
<path d="M15.2548 24.8818C16.485 24.8818 17.4822 23.8845 17.4822 22.6543C17.4822 21.4241 16.485 20.4269 15.2548 20.4269C14.0246 20.4269 13.0273 21.4241 13.0273 22.6543C13.0273 23.8845 14.0246 24.8818 15.2548 24.8818Z" fill="#69303A"/>
<path d="M25.421 31.7581C22.6695 31.6414 16.0894 29.1637 14.7752 23.7733C14.4991 22.6503 14.3757 21.4952 14.4083 20.3392C14.4083 20.1125 14.4293 19.8884 14.4476 19.6657C14.7713 15.9629 16.7995 12.9401 19.8354 12.1972C20.011 12.1553 20.1866 12.1199 20.3595 12.095C21.4193 11.9426 22.5005 12.064 23.5002 12.4475C24.7855 12.9483 25.9343 13.7457 26.8531 14.7745C27.2415 15.1985 27.5959 15.6524 27.9131 16.1319C28.7221 17.3587 29.3105 18.7173 29.6519 20.1466C30.9647 25.5409 27.4284 31.8393 25.421 31.7581Z" fill="#845161"/>
<path d="M21.1313 20.4507C21.9292 20.4913 21.8781 21.7111 21.0789 21.6849H21.0435C20.2443 21.6443 20.2967 20.4231 21.0946 20.4507H21.1313Z" fill="#00214E"/>
<path d="M27.7324 20.2251C28.4727 20.2631 28.4255 21.3952 27.6839 21.3703H27.6498C26.9096 21.3336 26.9567 20.2002 27.6983 20.2251H27.7324Z" fill="#00214E"/>
<path d="M25.3373 20.1871C25.3517 20.6975 25.4185 21.205 25.5364 21.7018C25.6544 22.1407 25.8365 22.4185 26.0828 22.8024C26.1675 22.9291 26.2403 23.0633 26.3003 23.2033C26.6135 23.9895 26.1182 24.8385 25.243 24.8019L24.7031 24.7783" stroke="#00214E" stroke-width="0.131026" stroke-miterlimit="10"/>
<path d="M21.506 26.1095C22.1057 26.8383 22.9491 27.3251 23.8802 27.48" stroke="#00214E" stroke-width="0.131026" stroke-miterlimit="10"/>
<path d="M22.8307 23.6948C22.7334 23.7388 22.655 23.8163 22.61 23.9132C22.565 24.0101 22.5564 24.1199 22.5856 24.2227C22.6148 24.3255 22.68 24.4143 22.7693 24.473C22.8585 24.5317 22.9659 24.5564 23.0718 24.5426" stroke="#00214E" stroke-width="0.131026" stroke-miterlimit="10"/>
<path d="M26.0251 18.6057C26.9696 18.1725 28.0438 18.1163 29.0283 18.4484" stroke="#00214E" stroke-width="0.131026" stroke-miterlimit="10"/>
<path d="M19.1396 18.6947C19.7832 18.4005 20.4837 18.2519 21.1913 18.2596C21.8988 18.2673 22.5959 18.4311 23.2329 18.7393" stroke="#00214E" stroke-width="0.131026" stroke-miterlimit="10"/>
<path d="M27.0877 14.8728C27.1519 15.0274 27.1388 15.1623 27.0288 15.3733C26.8973 15.623 26.7334 15.8543 26.5414 16.0612C26.148 16.4941 25.6431 16.8104 25.0821 16.9756C24.521 17.1409 23.9253 17.1486 23.3601 16.998C23.0566 16.9259 22.7667 16.8051 22.5018 16.6403C22.3053 16.5093 22.0773 16.2001 21.81 16.3049C21.7016 16.3619 21.616 16.4544 21.5676 16.5669C21.1392 17.3243 20.8758 18.1196 20.0294 18.5179C19.5371 18.7293 18.9913 18.7824 18.4676 18.6699C18.0194 18.59 17.8806 18.2349 17.4967 18.1261C17.2805 18.0646 17.0643 18.231 16.9332 18.4144C16.6856 18.7616 16.6646 19.2006 16.4602 19.5687C16.1982 20.0535 15.6649 20.4859 15.0963 20.5488C14.9845 20.5642 14.8706 20.5516 14.7649 20.512C14.6593 20.4724 14.5651 20.4072 14.4909 20.3221C14.2014 19.9474 14.373 19.2739 14.428 18.8402C14.6377 17.2181 15.1958 15.6118 16.1825 14.2949C17.0721 13.1157 18.3156 12.1985 19.7647 11.8513C22.2739 11.2394 25.3805 12.703 26.9384 14.6238C27.0011 14.6983 27.0515 14.7824 27.0877 14.8728Z" fill="url(#paint2_linear_982_7421)"/>
<path d="M26.7864 14.435C24.3742 13.7877 21.5309 13.9109 19.6009 14.9945C16.2467 16.8734 15.4592 18.3645 14.3927 19.9276L14.3468 19.9971C14.3468 19.9066 14.3468 19.8149 14.3586 19.7245C14.5656 15.8396 16.6293 12.6242 19.7739 11.863C22.2516 11.2589 24.8354 12.315 26.7825 14.4311L26.7864 14.435Z" fill="#00214E"/>
</g>
<defs>
<linearGradient id="paint0_linear_982_7421" x1="3.65039" y1="31.3323" x2="35.8121" y2="3.86876" gradientUnits="userSpaceOnUse">
<stop stop-color="#315676"/>
<stop offset="1" stop-color="#E1B9E0"/>
</linearGradient>
<linearGradient id="paint1_linear_982_7421" x1="7.59497" y1="40.3914" x2="37.2697" y2="40.3914" gradientUnits="userSpaceOnUse">
<stop stop-color="#16243F"/>
<stop offset="1" stop-color="#6878B1"/>
</linearGradient>
<linearGradient id="paint2_linear_982_7421" x1="15.5846" y1="25.3128" x2="25.6288" y2="7.73765" gradientUnits="userSpaceOnUse">
<stop stop-color="#315676"/>
<stop offset="1" stop-color="#E1B9E0"/>
</linearGradient>
<clipPath id="clip0_982_7421">
<path d="M0 22C0 9.84974 9.84974 0 22 0V0C34.1503 0 44 9.84974 44 22V22C44 34.1503 34.1503 44 22 44V44C9.84974 44 0 34.1503 0 22V22Z" fill="white"/>
</clipPath>
</defs>
</svg>
